<svg version="1.1" id="Capa_1" xmlns="http://www.w3.org/2000/svg" xmlns:xlink="http://www.w3.org/1999/xlink" x="0px" y="0px" viewBox="0 0 1200 1200" enable-background="new 0 0 1200 1200" xml:space="preserve">
<g>
	<path fill="#544468" d="M960.44,594.257v-18.432h-11.355C949.437,585.161,954.343,592.992,960.44,594.257z" style="fill: rgb(255, 255, 255);"/>
	<path fill="#544468" d="M975.237,575.825h-11.658v18.503C969.816,593.266,974.879,585.316,975.237,575.825z" style="fill: rgb(255, 255, 255);"/>
	<rect x="747.588" y="695.481" fill="#544468" width="10.936" height="21.146" style="fill: rgb(255, 255, 255);"/>
	<rect x="733.462" y="560.077" fill="#544468" width="11.545" height="15.746" style="fill: rgb(255, 255, 255);"/>
	<path fill="#544468" d="M960.44,555.264c-5.877,1.219-10.66,8.534-11.313,17.421h11.313V555.264z" style="fill: rgb(255, 255, 255);"/>
	<rect x="732.906" y="695.481" fill="#544468" width="11.544" height="21.146" style="fill: rgb(255, 255, 255);"/>
	<rect x="732.906" y="719.766" fill="#544468" width="11.544" height="19.797" style="fill: rgb(255, 255, 255);"/>
	<rect x="747.588" y="766.449" fill="#544468" width="10.936" height="21.872" style="fill: rgb(255, 255, 255);"/>
	<rect x="747.588" y="742.703" fill="#544468" width="10.936" height="20.607" style="fill: rgb(255, 255, 255);"/>
	<rect x="747.588" y="719.766" fill="#544468" width="10.936" height="19.797" style="fill: rgb(255, 255, 255);"/>
	<rect x="732.906" y="742.703" fill="#544468" width="11.544" height="20.607" style="fill: rgb(255, 255, 255);"/>
	<rect x="748.146" y="520.281" fill="#544468" width="10.936" height="16.759" style="fill: rgb(255, 255, 255);"/>
	<rect x="732.906" y="766.449" fill="#544468" width="11.544" height="21.872" style="fill: rgb(255, 255, 255);"/>
	<rect x="748.146" y="540.179" fill="#544468" width="10.936" height="16.759" style="fill: rgb(255, 255, 255);"/>
	<rect x="733.462" y="497.751" fill="#544468" width="11.545" height="19.39" style="fill: rgb(255, 255, 255);"/>
	<rect x="748.146" y="560.077" fill="#544468" width="10.936" height="15.746" style="fill: rgb(255, 255, 255);"/>
	<rect x="748.146" y="497.751" fill="#544468" width="10.936" height="19.39" style="fill: rgb(255, 255, 255);"/>
	<rect x="733.462" y="520.281" fill="#544468" width="11.545" height="16.759" style="fill: rgb(255, 255, 255);"/>
	<rect x="733.462" y="540.179" fill="#544468" width="11.545" height="16.759" style="fill: rgb(255, 255, 255);"/>
	<rect x="1007.374" y="753.791" fill="#544468" width="11.544" height="20.302" style="fill: rgb(255, 255, 255);"/>
	<path fill="#544468" d="M650.985,671.06l0.005-0.101h-7.498c0,0-6.38-20.86-44.049-20.86c-37.669,0-42.226,20.961-42.226,20.961&#10;&#9;&#9;h-8.304v5.67h-4.05v130.02h4.05v5.468h17.113V681.692c0,0,12.151-14.885,33.719-14.885c21.569,0,34.024,13.671,34.024,13.671&#10;&#9;&#9;v131.741h17.215v-5.468h3.646V676.73h-3.646V671.06z" style="fill: rgb(255, 255, 255);"/>
	<path fill="#544468" d="M606.43,796.906c6.654-0.03,12.98-0.057,17.923-0.08V684.644c-3.161-2.497-9.323-6.377-17.923-7.819&#10;&#9;&#9;V796.906z" style="fill: rgb(255, 255, 255);"/>
	<rect x="1007.374" y="728.172" fill="#544468" width="11.544" height="22.48" style="fill: rgb(255, 255, 255);"/>
	<rect x="1007.374" y="682.275" fill="#544468" width="11.544" height="19.012" style="fill: rgb(255, 255, 255);"/>
	<rect x="1007.374" y="657.205" fill="#544468" width="11.544" height="20.362" style="fill: rgb(255, 255, 255);"/>
	<rect x="1007.374" y="704.427" fill="#544468" width="11.544" height="20.607" style="fill: rgb(255, 255, 255);"/>
	<path fill="#544468" d="M575.445,797.044c4.818-0.021,11.035-0.049,17.619-0.079V676.907c-8.556,1.632-14.638,5.994-17.619,8.643&#10;&#9;&#9;V797.044z" style="fill: rgb(255, 255, 255);"/>
	<path fill="#544468" d="M596.936,433.673V416.21h-10.542C586.956,424.8,591.373,431.978,596.936,433.673z" style="fill: rgb(255, 255, 255);"/>
	<path fill="#544468" d="M498.422,447.677h97.376h4.152h101.729l-86.621-45.074c1.404,3.489,2.208,7.495,2.208,11.76&#10;&#9;&#9;c0,2.897-0.388,5.663-1.064,8.242c0.001,0.977,0.466,4.743,7.3,6.846c7.898,2.43,6.886,11.139,6.886,11.139h-31.248h-2.127h-28.454&#10;&#9;&#9;c0,0-1.013-8.709,6.886-11.139c6.424-1.976,7.221-5.426,7.294-6.645c-0.711-2.634-1.118-5.47-1.118-8.442&#10;&#9;&#9;c0-3.964,0.706-7.695,1.93-11.006L498.422,447.677z" style="fill: rgb(255, 255, 255);"/>
	<path fill="#544468" d="M484.107,447.677l108.197-55.719l-0.027,0.069c2.194-1.323,4.615-2.069,7.166-2.069&#10;&#9;&#9;c2.238,0,4.371,0.589,6.345,1.62l-0.117-0.152l110.324,56.25l-0.105,0.007l-1.417,8.297c0,0,76.036,0.221,115.564,0.091&#10;&#9;&#9;c14.657-0.165,23.265-0.294,23.265-0.294l-209.507-94.274h-12.218V354.7c1.608-0.416,2.723-1.272,2.723-2.272&#10;&#9;&#9;s-1.115-1.856-2.723-2.273v-3.929h-4.382v3.95c-1.567,0.423-2.649,1.267-2.649,2.251c0,0.984,1.082,1.828,2.649,2.251v6.825&#10;&#9;&#9;h-55.362V354.7c1.608-0.416,2.723-1.272,2.723-2.272s-1.115-1.856-2.723-2.273v-3.929h-4.382v3.95&#10;&#9;&#9;c-1.567,0.423-2.65,1.267-2.65,2.251c0,0.984,1.083,1.828,2.65,2.251v6.825h-12.968l-198.371,94.274&#10;&#9;&#9;c0,0.033,56.239,0.045,129.385,0.045L484.107,447.677z" style="fill: rgb(255, 255, 255);"/>
	<path fill="#544468" d="M601.645,394.98v16.521h10.75C611.549,403.213,607.126,396.443,601.645,394.98z" style="fill: rgb(255, 255, 255);"/>
	<path fill="#544468" d="M91.258,826.707C56.962,828.087,50,853.773,50,853.773h449.296v-13.844h9.113v-0.169v-13.054H91.258z" style="fill: rgb(255, 255, 255);"/>
	<path fill="#544468" d="M601.645,433.745c5.705-1.522,10.276-8.79,10.848-17.535h-10.848V433.745z" style="fill: rgb(255, 255, 255);"/>
	<path fill="#544468" d="M596.936,395.053c-5.341,1.627-9.614,8.314-10.445,16.448h10.445V395.053z" style="fill: rgb(255, 255, 255);"/>
	<path fill="#544468" d="M963.579,555.192v17.494h11.616C974.531,563.644,969.594,556.217,963.579,555.192z" style="fill: rgb(255, 255, 255);"/>
	<rect x="893.961" y="682.275" fill="#544468" width="11.544" height="19.012" style="fill: rgb(255, 255, 255);"/>
	<rect x="908.645" y="753.791" fill="#544468" width="10.936" height="20.302" style="fill: rgb(255, 255, 255);"/>
	<rect x="893.961" y="657.205" fill="#544468" width="11.544" height="20.362" style="fill: rgb(255, 255, 255);"/>
	<rect x="908.645" y="728.172" fill="#544468" width="10.936" height="22.48" style="fill: rgb(255, 255, 255);"/>
	<rect x="908.645" y="704.427" fill="#544468" width="10.936" height="20.607" style="fill: rgb(255, 255, 255);"/>
	<rect x="908.645" y="657.205" fill="#544468" width="10.936" height="20.362" style="fill: rgb(255, 255, 255);"/>
	<rect x="908.645" y="682.275" fill="#544468" width="10.936" height="19.012" style="fill: rgb(255, 255, 255);"/>
	<rect x="1022.057" y="682.275" fill="#544468" width="10.937" height="19.012" style="fill: rgb(255, 255, 255);"/>
	<rect x="1022.057" y="704.427" fill="#544468" width="10.937" height="20.607" style="fill: rgb(255, 255, 255);"/>
	<rect x="1022.057" y="753.791" fill="#544468" width="10.937" height="20.302" style="fill: rgb(255, 255, 255);"/>
	<rect x="1022.057" y="728.172" fill="#544468" width="10.937" height="22.48" style="fill: rgb(255, 255, 255);"/>
	<rect x="893.961" y="704.427" fill="#544468" width="11.544" height="20.607" style="fill: rgb(255, 255, 255);"/>
	<rect x="893.961" y="728.172" fill="#544468" width="11.544" height="22.48" style="fill: rgb(255, 255, 255);"/>
	<rect x="893.961" y="753.791" fill="#544468" width="11.544" height="20.302" style="fill: rgb(255, 255, 255);"/>
	<rect x="1022.057" y="657.205" fill="#544468" width="10.937" height="20.362" style="fill: rgb(255, 255, 255);"/>
	<rect x="164.78" y="704.427" fill="#544468" width="11.545" height="20.607" style="fill: rgb(255, 255, 255);"/>
	<rect x="536.193" y="558.266" fill="#544468" width="8.995" height="32.888" style="fill: rgb(255, 255, 255);"/>
	<rect x="442.64" y="540.179" fill="#544468" width="11.544" height="16.759" style="fill: rgb(255, 255, 255);"/>
	<rect x="442.64" y="560.077" fill="#544468" width="11.544" height="15.746" style="fill: rgb(255, 255, 255);"/>
	<rect x="551.372" y="558.266" fill="#544468" width="8.995" height="32.888" style="fill: rgb(255, 255, 255);"/>
	<rect x="608.456" y="513.751" fill="#544468" width="10.581" height="17.82" style="fill: rgb(255, 255, 255);"/>
	<path fill="#544468" d="M619.038,497.983c-0.931-1.229-3.78-4.119-10.581-5.599v18.227h10.581V497.983z" style="fill: rgb(255, 255, 255);"/>
	<path fill="#544468" d="M605.317,491.851c-1.832-0.233-3.87-0.378-6.178-0.378c-2.11,0-3.997,0.133-5.723,0.346v18.793h11.901&#10;&#9;&#9;V491.851z" style="fill: rgb(255, 255, 255);"/>
	<rect x="566.551" y="558.266" fill="#544468" width="8.995" height="32.888" style="fill: rgb(255, 255, 255);"/>
	<path fill="#544468" d="M236.219,594.257v-18.432h-11.354C225.217,585.16,230.123,592.991,236.219,594.257z" style="fill: rgb(255, 255, 255);"/>
	<rect x="457.323" y="497.751" fill="#544468" width="10.936" height="19.39" style="fill: rgb(255, 255, 255);"/>
	<rect x="457.323" y="540.179" fill="#544468" width="10.936" height="16.759" style="fill: rgb(255, 255, 255);"/>
	<rect x="442.64" y="497.751" fill="#544468" width="11.544" height="19.39" style="fill: rgb(255, 255, 255);"/>
	<rect x="442.64" y="520.281" fill="#544468" width="11.544" height="16.759" style="fill: rgb(255, 255, 255);"/>
	<rect x="457.323" y="560.077" fill="#544468" width="10.936" height="15.746" style="fill: rgb(255, 255, 255);"/>
	<rect x="596.908" y="558.266" fill="#544468" width="8.995" height="32.888" style="fill: rgb(255, 255, 255);"/>
	<rect x="627.266" y="558.266" fill="#544468" width="8.995" height="32.888" style="fill: rgb(255, 255, 255);"/>
	<rect x="642.445" y="558.266" fill="#544468" width="8.995" height="32.888" style="fill: rgb(255, 255, 255);"/>
	<rect x="612.087" y="558.266" fill="#544468" width="8.995" height="32.888" style="fill: rgb(255, 255, 255);"/>
	<path fill="#544468" d="M1150,853.773c0,0-7.041-25.892-41.722-27.066H690.072v13.054v0.169h7.493v13.844H1150z" style="fill: rgb(255, 255, 255);"/>
	<path fill="#544468" d="M619.038,550.787V534.71h-10.581v16.035c3.577,0.004,6.855,0.014,9.443,0.033&#10;&#9;&#9;C618.295,550.781,618.675,550.784,619.038,550.787z" style="fill: rgb(255, 255, 255);"/>
	<path fill="#544468" d="M682.174,812.218v10.553h425.297V629.137H819.078v-9.316h1.311v0.004&#10;&#9;&#9;c11.901,0.029,105.716,0.259,189.338,0.401h134.399h0.81L902.72,501.953l-17.395,22.278h-66.247v-60.96H706.576l1.215-7.898&#10;&#9;&#9;H492.208l1.214,7.898H383.251v60.96h-63.614l-17.395-22.278L60.025,620.227h133.646c88.961-0.152,189.58-0.405,189.58-0.405v0.405&#10;&#9;&#9;v8.911H93.239v193.634h423.272v-10.553h9.721v-5.468h3.646V676.73h-3.646v-5.67h-8.203l0.299-36.758h-4.248v-6.076h171.942v6.076&#10;&#9;&#9;h-5.165v36.656h-7.185c-0.031,0.035-0.005,5.772-0.005,5.772h-4.05v130.02h4.05v5.468H682.174z M1041.55,652.023h15.797v126.779&#10;&#9;&#9;h-15.797V652.023z M1002.665,652.496h35.037v126.305h-35.037V652.496z M983.122,652.023h15.797v126.779h-15.797V652.023z&#10;&#9;&#9; M928.137,652.023h15.797v126.779h-15.797V652.023z M889.253,652.496h35.037v126.305h-35.037V652.496z M869.71,652.023h15.797&#10;&#9;&#9;v126.779H869.71V652.023z M938.162,589.848c6.425-1.977,7.221-5.428,7.295-6.647c-0.711-2.634-1.118-5.469-1.118-8.442&#10;&#9;&#9;c0-13.478,7.979-24.403,17.822-24.403c9.843,0,17.823,10.926,17.823,24.403c0,2.898-0.389,5.665-1.065,8.243&#10;&#9;&#9;c0.002,0.978,0.467,4.743,7.3,6.845c7.898,2.43,6.886,11.139,6.886,11.139h-31.247h-2.127h-28.455&#10;&#9;&#9;C931.276,600.987,930.263,592.278,938.162,589.848z M767.638,492.638h15.797v87.489h-15.797V492.638z M767.081,690.299h15.797&#10;&#9;&#9;v102.578h-15.797V690.299z M728.754,493.043h35.037v87.49h-35.037V493.043z M728.197,690.772h35.036v102.257h-35.036V690.772z&#10;&#9;&#9; M709.21,492.638h15.797v87.489H709.21V492.638z M708.653,690.299h15.797v102.578h-15.797V690.299z M268.885,600.987h-31.247&#10;&#9;&#9;h-2.126h-28.455c0,0-1.013-8.709,6.886-11.139c6.424-1.976,7.221-5.426,7.295-6.645c-0.711-2.635-1.118-5.47-1.118-8.443&#10;&#9;&#9;c0-13.478,7.979-24.403,17.822-24.403c9.843,0,17.822,10.926,17.822,24.403c0,2.898-0.388,5.665-1.065,8.243&#10;&#9;&#9;c0.002,0.978,0.467,4.743,7.3,6.845C269.897,592.278,268.885,600.987,268.885,600.987z M156.325,778.802h-15.797V652.023h15.797&#10;&#9;&#9;V778.802z M195.107,778.802h-35.036V652.496h35.036V778.802z M214.752,778.802h-15.797V652.023h15.797V778.802z M271.459,778.802&#10;&#9;&#9;h-15.797V652.023h15.797V778.802z M310.242,778.802h-35.037V652.496h35.037V778.802z M329.886,778.802h-15.797V652.023h15.797&#10;&#9;&#9;V778.802z M434.185,792.877h-15.797V690.299h15.797V792.877z M434.185,580.127h-15.797v-87.489h15.797V580.127z M472.968,793.029&#10;&#9;&#9;h-35.036V690.772h35.036V793.029z M472.968,580.532h-35.036v-87.49h35.036V580.532z M492.612,792.877h-15.797V690.299h15.797&#10;&#9;&#9;V792.877z M492.612,580.127h-15.797v-87.489h15.797V580.127z M514.992,597.848v-6.531h5.569v-42.985h-2.835v-4.557h21.569v4.557&#10;&#9;&#9;h-3.545v2.633h9.833c0.078-8.571,0.574-63.92,0.293-64.2c20.353,0,24.607,10.733,24.607,10.733v53.466h3.443c0,0,0-53.586,0-53.643&#10;&#9;&#9;c0-1.096,2.159-2.92,2.84-3.557c2.768-2.584,6.243-4.275,9.848-5.35c3.318-0.989,7.438-1.649,12.526-1.649&#10;&#9;&#9;c7.632,0,13.001,1.398,16.73,3.144c0.861,0.404,1.606,0.827,2.301,1.255c2.081,1.284,4.575,3.215,5.576,5.537v54.264h3.645v-53.466&#10;&#9;&#9;c0,0,4.253-10.733,24.606-10.733c-0.279,0.28,0.216,55.629,0.294,64.2h14.289v-2.633h-2.835v-4.557h21.569v4.557h-3.545v42.985&#10;&#9;&#9;h4.861v6.531H514.992z" style="fill: rgb(255, 255, 255);"/>
	<rect x="657.624" y="558.266" fill="#544468" width="8.995" height="32.888" style="fill: rgb(255, 255, 255);"/>
	<path fill="#544468" d="M590.278,534.71h-11.644v16.082c2.968-0.011,7.091-0.023,11.644-0.033V534.71z" style="fill: rgb(255, 255, 255);"/>
	<rect x="578.634" y="513.751" fill="#544468" width="11.644" height="17.82" style="fill: rgb(255, 255, 255);"/>
	<rect x="593.417" y="513.751" fill="#544468" width="11.901" height="17.82" style="fill: rgb(255, 255, 255);"/>
	<path fill="#544468" d="M590.278,492.329c-7.333,1.563-10.538,4.857-11.644,6.331v11.952h11.644V492.329z" style="fill: rgb(255, 255, 255);"/>
	<rect x="581.729" y="558.266" fill="#544468" width="8.995" height="32.888" style="fill: rgb(255, 255, 255);"/>
	<path fill="#544468" d="M605.317,550.743V534.71h-11.901v16.043c3.524-0.006,7.198-0.011,10.725-0.011&#10;&#9;&#9;C604.542,550.742,604.922,550.743,605.317,550.743z" style="fill: rgb(255, 255, 255);"/>
	<rect x="442.64" y="766.449" fill="#544468" width="11.544" height="21.872" style="fill: rgb(255, 255, 255);"/>
	<rect x="457.323" y="520.281" fill="#544468" width="10.936" height="16.759" style="fill: rgb(255, 255, 255);"/>
	<rect x="164.78" y="657.205" fill="#544468" width="11.545" height="20.362" style="fill: rgb(255, 255, 255);"/>
	<rect x="179.464" y="728.172" fill="#544468" width="10.934" height="22.48" style="fill: rgb(255, 255, 255);"/>
	<rect x="179.464" y="753.791" fill="#544468" width="10.934" height="20.302" style="fill: rgb(255, 255, 255);"/>
	<rect x="164.78" y="682.275" fill="#544468" width="11.545" height="19.012" style="fill: rgb(255, 255, 255);"/>
	<rect x="164.78" y="728.172" fill="#544468" width="11.545" height="22.48" style="fill: rgb(255, 255, 255);"/>
	<rect x="294.596" y="682.275" fill="#544468" width="10.937" height="19.012" style="fill: rgb(255, 255, 255);"/>
	<rect x="164.78" y="753.791" fill="#544468" width="11.545" height="20.302" style="fill: rgb(255, 255, 255);"/>
	<rect x="294.596" y="657.205" fill="#544468" width="10.937" height="20.362" style="fill: rgb(255, 255, 255);"/>
	<rect x="179.464" y="704.427" fill="#544468" width="10.934" height="20.607" style="fill: rgb(255, 255, 255);"/>
	<path fill="#544468" d="M239.358,594.328c6.237-1.062,11.301-9.012,11.659-18.503h-11.659V594.328z" style="fill: rgb(255, 255, 255);"/>
	<path fill="#544468" d="M224.907,572.686h11.312v-17.421C230.343,556.484,225.559,563.798,224.907,572.686z" style="fill: rgb(255, 255, 255);"/>
	<path fill="#544468" d="M239.358,555.192v17.494h11.617C250.311,563.644,245.374,556.216,239.358,555.192z" style="fill: rgb(255, 255, 255);"/>
	<rect x="179.464" y="682.275" fill="#544468" width="10.934" height="19.012" style="fill: rgb(255, 255, 255);"/>
	<rect x="179.464" y="657.205" fill="#544468" width="10.934" height="20.362" style="fill: rgb(255, 255, 255);"/>
	<rect x="279.914" y="704.427" fill="#544468" width="11.543" height="20.607" style="fill: rgb(255, 255, 255);"/>
	<rect x="457.323" y="719.766" fill="#544468" width="10.936" height="19.797" style="fill: rgb(255, 255, 255);"/>
	<rect x="457.323" y="695.481" fill="#544468" width="10.936" height="21.146" style="fill: rgb(255, 255, 255);"/>
	<rect x="294.596" y="704.427" fill="#544468" width="10.937" height="20.607" style="fill: rgb(255, 255, 255);"/>
	<rect x="457.323" y="742.703" fill="#544468" width="10.936" height="20.607" style="fill: rgb(255, 255, 255);"/>
	<rect x="442.64" y="719.766" fill="#544468" width="11.544" height="19.797" style="fill: rgb(255, 255, 255);"/>
	<rect x="457.323" y="766.449" fill="#544468" width="10.936" height="21.872" style="fill: rgb(255, 255, 255);"/>
	<rect x="442.64" y="695.481" fill="#544468" width="11.544" height="21.146" style="fill: rgb(255, 255, 255);"/>
	<rect x="279.914" y="753.791" fill="#544468" width="11.543" height="20.302" style="fill: rgb(255, 255, 255);"/>
	<rect x="294.596" y="753.791" fill="#544468" width="10.937" height="20.302" style="fill: rgb(255, 255, 255);"/>
	<rect x="279.914" y="657.205" fill="#544468" width="11.543" height="20.362" style="fill: rgb(255, 255, 255);"/>
	<rect x="294.596" y="728.172" fill="#544468" width="10.937" height="22.48" style="fill: rgb(255, 255, 255);"/>
	<rect x="442.64" y="742.703" fill="#544468" width="11.544" height="20.607" style="fill: rgb(255, 255, 255);"/>
	<rect x="279.914" y="682.275" fill="#544468" width="11.543" height="19.012" style="fill: rgb(255, 255, 255);"/>
	<rect x="279.914" y="728.172" fill="#544468" width="11.543" height="22.48" style="fill: rgb(255, 255, 255);"/>
</g>
</svg>